<?xml version="1.0" encoding="utf-8"?>
<!-- Generator: Adobe Illustrator 19.1.0, SVG Export Plug-In . SVG Version: 6.00 Build 0)  -->
<svg version="1.1" id="Lager_1" xmlns="http://www.w3.org/2000/svg" xmlns:xlink="http://www.w3.org/1999/xlink" x="0px" y="0px"
	 width="279.5px" height="92.3px" viewBox="-141.5 -48.3 279.5 92.3" style="enable-background:new -141.5 -48.3 279.5 92.3;"
	 xml:space="preserve">
<style type="text/css">
	.st0{fill:#FFFFFF;}
</style>
<path class="st0" d="M-13.6-2.6h-3.8v-12.5h3.8V-2.6z M-18.7-2.6h-3.4v-12.5h3.4V-2.6z M-24.2-2.6h-1.7v-12.5h1.7V-2.6z M-55.1-15.1
	h2.1v12.5h-2.1V-15.1z M-56.8-2.6h-3.4v-12.5h3.4V-2.6z M-61.9-2.6h-3.4v-12.5h3.4V-2.6z M-11.9-0.9v-15.9h-14V-28l5.9-5.2
	l-18.7-10.7v-4.3h-2.1v4.3l-17.8,10.7l5.9,5.2v11.2H-67v15.9l11.9,4.3h0.8v40.4h30.5V3.4h0.4l11.9-3.9L-11.9-0.9z"/>
<path class="st0" d="M61.4-2.5h-3.8V-15h3.8V-2.5z M56.3-2.5h-3.4V-15h3.4V-2.5z M50.8-2.5h-1.7V-15h1.7V-2.5z M19.9-15H22v12.5
	h-2.1V-15z M18.2-2.5h-3.4V-15h3.4V-2.5z M13.1-2.5H9.7V-15h3.4V-2.5z M63.1-0.8v-15.9h-14v-11.2l5.9-5.2L36.4-43.8v-4.3h-2.1v4.3
	L16.5-33l5.9,5.2v11.2H8v15.9l11.9,4.3h0.8v40.4h30.5V3.5h0.4l11.9-3.9L63.1-0.8z"/>
<path class="st0" d="M135.9-2.4h-3.8v-12.5h3.8V-2.4z M130.8-2.4h-3.4v-12.5h3.4V-2.4z M125.3-2.4h-1.7v-12.5h1.7V-2.4z M94.4-14.9
	h2.1v12.5h-2.1V-14.9z M92.7-2.4h-3.4v-12.5h3.4V-2.4z M87.6-2.4h-3.4v-12.5h3.4V-2.4z M137.6-0.7v-15.9h-14v-11.2l5.9-5.2
	l-18.7-10.7v-4.3h-2.1v4.3L91-32.9l5.9,5.2v11.2H82.5v15.9l11.9,4.3h0.8V44h30.5V3.6h0.4L138-0.3L137.6-0.7z"/>
<path class="st0" d="M-88.1-2.7h-3.8v-12.5h3.8V-2.7z M-93.2-2.7h-3.4v-12.5h3.4V-2.7z M-98.7-2.7h-1.7v-12.5h1.7V-2.7z
	 M-129.6-15.2h2.1v12.5h-2.1V-15.2z M-131.3-2.7h-3.4v-12.5h3.4V-2.7z M-136.4-2.7h-3.4v-12.5h3.4V-2.7z M-86.4-1v-15.9h-14v-11.2
	l5.9-5.2L-113.1-44v-4.3h-2.1v4.3L-133-33.2l5.9,5.2v11.2h-14.4V-1l11.9,4.3h0.8v40.4h30.5V3.3h0.4L-86-0.6L-86.4-1z"/>
</svg>
